TITLE ""
FILE "Disc3Track43.mp3" MP3
  TRACK 01 AUDIO
    TITLE "Disc3Track43_01"
    INDEX 01 00:00:00
  TRACK 02 AUDIO
    TITLE "Disc3Track43_02"
    INDEX 01 00:03:48
  TRACK 03 AUDIO
    TITLE "Disc3Track43_03"
    INDEX 01 00:03:65
  TRACK 04 AUDIO
    TITLE "Disc3Track43_04"
    INDEX 01 00:05:06
  TRACK 05 AUDIO
    TITLE "Disc3Track43_05"
    INDEX 01 00:06:40
  TRACK 06 AUDIO
    TITLE "Disc3Track43_06"
    INDEX 01 00:07:53
  TRACK 07 AUDIO
    TITLE "Disc3Track43_07"
    INDEX 01 00:10:34
  TRACK 08 AUDIO
    TITLE "Disc3Track43_08"
    INDEX 01 00:10:67
  TRACK 09 AUDIO
    TITLE "Disc3Track43_09"
    INDEX 01 00:12:02
  TRACK 10 AUDIO
    TITLE "Disc3Track43_10"
    INDEX 01 00:14:73
  TRACK 11 AUDIO
    TITLE "Disc3Track43_11"
    INDEX 01 00:16:07
  TRACK 12 AUDIO
    TITLE "Disc3Track43_12"
    INDEX 01 00:19:21
  TRACK 13 AUDIO
    TITLE "Disc3Track43_13"
    INDEX 01 00:19:53
  TRACK 14 AUDIO
    TITLE "Disc3Track43_14"
    INDEX 01 00:20:74
  TRACK 15 AUDIO
    TITLE "Disc3Track43_15"
    INDEX 01 00:22:31
  TRACK 16 AUDIO
    TITLE "Disc3Track43_16"
    INDEX 01 00:23:52
  TRACK 17 AUDIO
    TITLE "Disc3Track43_17"
    INDEX 01 00:28:63
  TRACK 18 AUDIO
    TITLE "Disc3Track43_18"
    INDEX 01 00:29:20
  TRACK 19 AUDIO
    TITLE "Disc3Track43_19"
    INDEX 01 00:30:39
  TRACK 20 AUDIO
    TITLE "Disc3Track43_20"
    INDEX 01 00:33:45
  TRACK 21 AUDIO
    TITLE "Disc3Track43_21"
    INDEX 01 00:34:64
  TRACK 22 AUDIO
    TITLE "Disc3Track43_22"
    INDEX 01 00:38:46
  TRACK 23 AUDIO
    TITLE "Disc3Track43_23"
    INDEX 01 00:39:01
  TRACK 24 AUDIO
    TITLE "Disc3Track43_24"
    INDEX 01 00:40:31
  TRACK 25 AUDIO
    TITLE "Disc3Track43_25"
    INDEX 01 00:42:62
  TRACK 26 AUDIO
    TITLE "Disc3Track43_26"
    INDEX 01 00:44:17
  TRACK 27 AUDIO
    TITLE "Disc3Track43_27"
    INDEX 01 00:44:57
  TRACK 28 AUDIO
    TITLE "Disc3Track43_28"
    INDEX 01 00:46:08
  TRACK 29 AUDIO
    TITLE "Disc3Track43_29"
    INDEX 01 00:48:01
  TRACK 30 AUDIO
    TITLE "Disc3Track43_30"
    INDEX 01 00:49:28
  TRACK 31 AUDIO
    TITLE "Disc3Track43_31"
    INDEX 01 00:53:03
  TRACK 32 AUDIO
    TITLE "Disc3Track43_32"
    INDEX 01 00:53:34
  TRACK 33 AUDIO
    TITLE "Disc3Track43_33"
    INDEX 01 00:54:57
  TRACK 34 AUDIO
    TITLE "Disc3Track43_34"
    INDEX 01 00:59:23
  TRACK 35 AUDIO
    TITLE "Disc3Track43_35"
    INDEX 01 01:00:44
  TRACK 36 AUDIO
    TITLE "Disc3Track43_36"
    INDEX 01 01:07:26
  TRACK 37 AUDIO
    TITLE "Disc3Track43_37"
    INDEX 01 01:07:60
  TRACK 38 AUDIO
    TITLE "Disc3Track43_38"
    INDEX 01 01:08:71
  TRACK 39 AUDIO
    TITLE "Disc3Track43_39"
    INDEX 01 01:09:74
  TRACK 40 AUDIO
    TITLE "Disc3Track43_40"
    INDEX 01 01:11:10
  TRACK 41 AUDIO
    TITLE "Disc3Track43_41"
    INDEX 01 01:13:09
  TRACK 42 AUDIO
    TITLE "Disc3Track43_42"
    INDEX 01 01:13:41
  TRACK 43 AUDIO
    TITLE "Disc3Track43_43"
    INDEX 01 01:14:66
  TRACK 44 AUDIO
    TITLE "Disc3Track43_44"
    INDEX 01 01:16:66
  TRACK 45 AUDIO
    TITLE "Disc3Track43_45"
    INDEX 01 01:18:14
  TRACK 46 AUDIO
    TITLE "Disc3Track43_46"
    INDEX 01 01:20:19
